<?xml version="1.0" encoding="utf-8"?>

<!DOCTYPE svg PUBLIC "-//W3C//DTD SVG 1.1//EN" "http://www.w3.org/Graphics/SVG/1.1/DTD/svg11.dtd">
<svg version="1.1" id="Layer_1" xmlns="http://www.w3.org/2000/svg" xmlns:xlink="http://www.w3.org/1999/xlink" x="0px" y="0px"
	 viewBox="0 0 1126.06 1694.386" enable-background="new 0 0 1126.06 1694.386" xml:space="preserve">
<path d="M727.071,47.193c0.669,0.226,2.008,0.678,2.668,0.904c86.826,208.204,85.687,181.789,80.976,220.877
	c0,0.001-6.828,130.078-6.829,130.079c-4.581,44.805,1.902,24.921-5.933,49.284c-64.911,190.068-60.584,178.97-63.357,183.858
	c-83.848,127.697-78.263,119.042-79.221,121.505c3.238-0.95,130.894-81.185,134.23-86.149
	c153.45-224.96,144.835-211.073,145.391-214.211c0.717-5.379,4.007-170.677,6.051-175.302c2.422,2.248,7.188,161.821,8.502,178.169
	c1.07,5.572,8.63-8.783-138.065,224.893c-6.229,9.848,8.527-3.889-146.106,113.337c2.021,2.656,125.37,85.56,127.501,85.661
	c1.997-0.319,168.765-24.782,168.771-24.782c13.022-0.801,124.973-110.465,133.045-111.339
	c-0.404,3.068-125.924,130.221-128.451,131.897c-188.352,34.034-177.144,32.07-180.068,30.317
	c-1.002-0.501-110.936-55.513-114.703-56.574c0.816,4.006,203.7,246.43,206.487,251.583c23.606,99.743,47.023,199.55,70.602,299.321
	c0.302,3.07,5.425-8.247-156.652,244.999c-0.778,1.23-1.945,1.782-3.5,1.655c1.723-4.959,142.288-241.011,142.886-242.014
	c1.215-2.228-71.464-292.405-71.714-293.405c-0.558-3.907,6.276,3.754-125.159-109.828c-0.995-0.986-2.433-0.95-3.672-1.23
	c-0.62,3.669,0.157,69.063-54.837,119.153c-25.605,23.443-59.151,38.485-93.901,40.502c-11.423,1.755-22.91-0.172-34.306-1.185
	c-79.782-13.242-129.516-80.601-135.46-147.824c-2.595-14.888-0.579-26.554-0.588-32.47
	c-3.317,1.214-145.919,124.269-147.309,126.371c-23.67,95.637-47.52,191.229-71.154,286.875
	c-1.852,9.791-18.129-19.739,141.303,247.721c0.769,1.049,1.158,2.234,1.149,3.545c-3.294,0.189,8.896,17.231-160.351-245.75
	c-1.211-1.843-2.553,10.038,70.104-300.903c4.36-6.943,205.777-248.146,207.446-252.379c-6.046,2.342-81.38,40.312-116.774,57.677
	c-5.421,0.882-160.466-28.522-177.816-30.525c-3.099-1.272-126.728-127.062-126.895-130.323c3.383,0.425,5.517,3.365,7.968,5.427
	c128.742,114.104,114.675,103.211,125.71,104.347c3.73,0.084,157.061,23.713,166.51,23.778
	c1.779,0.126,116.212-77.332,117.227-78.018c-12.679-11.076-134.357-98.484-141.991-110.479
	C159.141,450.762,167.585,466.2,168.579,462.537c1.485-8.4,6.142-157.763,7.76-180.701c0.624,0.099,1.881,0.308,2.505,0.416
	c0.055,15.575,3.656,166.897,4.956,178.114c0.649,1.005,144.951,214.403,149.687,217.25c1.012,0.643,126.739,80.728,130.061,81.699
	c-102.32-157.94-67.476-81.639-146.332-315.438c-1.165-13.918-10.587-185.679-10.555-186.68
	c0.687-19.391-11.873,16.179,68.476-171.684c4.947-10.944,9.144-22.259,14.408-33.049c0.579-0.081,1.755-0.235,2.333-0.317
	c-1.748,8.455-74.217,191.521-73.261,197.832c0,0,8.976,147.842,9.18,150.122c10.309,69.919-25.227-29.556,74.618,226.177
	c1.748,4.821,1.842,2.918,89.279,113.943c0.588,0.47,1.302,0.724,2.153,0.751c3.057-4.558,5.644-9.497,9.479-13.495
	c1.375-1.538,3.021-2.885,4.07-4.685c0.38-1.791-1.429-2.93-2.361-4.17c-5.119-4.993-9.017-11.279-10.917-18.171
	c-1.135-11.709,19.049-27.274,27.667-31.728c0.53,7.402-16.489,21.076,7.344,37.426c1.89,1.61,4.251,0.344,6.295-0.199
	c12.393-4.831,26.491-4.057,32.823-3.934c20.807,3.99,21.024,6.438,23.498,4.305c20.906-15.355,12.439-22.568,7.742-37.463
	c3.65-0.482,31.971,20.633,27.64,32.135c-2.415,8.312-7.977,15.258-14.218,21.074c3.754,4.866,8.104,9.289,11.188,14.661
	c2.735-1.206-2.982,4.887,87.741-109.177c3.986-4.147-1.429,7.076,75.459-189.303c1.236-6.097,10.624-161.006,10.654-162.006
	c0-12.083,2.37-24.049,1.746-36.142C724.879,42.367,727.404,52.375,727.071,47.193z"/>
</svg>
